<svg width="48" height="33" viewBox="0 0 48 33" fill="none" xmlns="http://www.w3.org/2000/svg">
<rect x="0.423198" y="0.423198" width="46.5517" height="31.3166" rx="2.96238" fill="white" stroke="#F3F3F3" stroke-width="0.846395"/>
<path fill-rule="evenodd" clip-rule="evenodd" d="M14.3643 12.002C14.0196 12.4078 13.468 12.7279 12.9163 12.6822C12.8474 12.1334 13.1174 11.5504 13.4335 11.1903C13.7782 10.773 14.3816 10.4757 14.87 10.4529C14.9274 11.0245 14.7033 11.5847 14.3643 12.002ZM14.8645 12.7908C14.3786 12.763 13.9352 12.9362 13.577 13.0761C13.3465 13.1662 13.1513 13.2424 13.0028 13.2424C12.8362 13.2424 12.633 13.1621 12.4048 13.0719C12.1058 12.9537 11.7639 12.8186 11.4054 12.8251C10.5838 12.8365 9.81955 13.2996 9.40009 14.0369C8.53819 15.5117 9.17599 17.6953 10.0092 18.8957C10.4171 19.4902 10.9055 20.1418 11.5491 20.119C11.8322 20.1083 12.0359 20.0224 12.2467 19.9334C12.4893 19.831 12.7414 19.7245 13.135 19.7245C13.5149 19.7245 13.756 19.8282 13.9874 19.9277C14.2074 20.0223 14.4187 20.1131 14.7324 20.1075C15.3989 20.0961 15.8184 19.513 16.2263 18.9186C16.6666 18.2805 16.8601 17.6578 16.8894 17.5633L16.8929 17.5524C16.8922 17.5517 16.8867 17.5492 16.8771 17.5448C16.73 17.4778 15.6051 16.9655 15.5943 15.5917C15.5834 14.4387 16.4865 13.8544 16.6287 13.7625L16.6287 13.7625L16.6287 13.7625L16.6288 13.7624C16.6374 13.7568 16.6432 13.7531 16.6458 13.7511C16.0712 12.9051 15.1748 12.8137 14.8645 12.7908ZM19.4783 20.0446V11.1331H22.8397C24.575 11.1331 25.7874 12.3221 25.7874 14.0598C25.7874 15.7975 24.552 16.9979 22.7937 16.9979H20.8688V20.0446H19.4783ZM20.869 12.2993H22.4721C23.6788 12.2993 24.3683 12.9395 24.3683 14.0656C24.3683 15.1916 23.6788 15.8376 22.4664 15.8376H20.869V12.2993ZM30.3791 18.9757C30.0114 19.6731 29.2012 20.1133 28.3278 20.1133C27.0349 20.1133 26.1328 19.3473 26.1328 18.1926C26.1328 17.0494 27.0062 16.392 28.6208 16.2949L30.3561 16.192V15.7004C30.3561 14.9744 29.8792 14.58 29.0288 14.58C28.3278 14.58 27.8164 14.9401 27.713 15.4889H26.4603C26.5006 14.3342 27.5923 13.4939 29.069 13.4939C30.6607 13.4939 31.6949 14.3228 31.6949 15.6089V20.0447H30.4078V18.9757H30.3791ZM28.701 19.0557C27.9598 19.0557 27.4886 18.7013 27.4886 18.1583C27.4886 17.5981 27.9425 17.2723 28.8102 17.2208L30.3558 17.1236V17.6267C30.3558 18.4612 29.6433 19.0557 28.701 19.0557ZM35.964 20.3934C35.4066 21.9539 34.7688 22.4683 33.4128 22.4683C33.3093 22.4683 32.9646 22.4569 32.8841 22.434V21.3651C32.9703 21.3765 33.1829 21.388 33.2921 21.388C33.9069 21.388 34.2517 21.1307 34.4643 20.462L34.5907 20.0675L32.2348 13.5797H33.6886L35.3262 18.8443H35.3549L36.9925 13.5797H38.406L35.964 20.3934Z" fill="black"/>
</svg>
