<svg width="48" height="33" viewBox="0 0 48 33" fill="none" xmlns="http://www.w3.org/2000/svg">
<rect x="0.821635" y="0.423198" width="46.5517" height="31.3166" rx="2.96238" fill="white" stroke="#F3F3F3" stroke-width="0.846395"/>
<path fill-rule="evenodd" clip-rule="evenodd" d="M23.2124 19.3929V15.7657V15.7649H25.2067C26.0289 15.7654 26.7199 15.5112 27.2797 15.0023C27.8455 14.5194 28.1618 13.8249 28.1457 13.1011C28.1569 12.3813 27.8412 11.6921 27.2797 11.2107C26.7249 10.699 25.9786 10.4198 25.2067 10.4352H22.0054V19.3929H23.2124ZM23.2127 14.665V11.5381V11.5373H25.237C25.6882 11.5253 26.1231 11.6983 26.4313 12.0126C26.7415 12.3001 26.9165 12.6949 26.9165 13.1073C26.9165 13.5196 26.7415 13.9144 26.4313 14.2019C26.1193 14.5096 25.6858 14.6777 25.237 14.665H23.2127Z" fill="#5F6368"/>
<path fill-rule="evenodd" clip-rule="evenodd" d="M33.04 13.7458C32.5237 13.2913 31.8194 13.064 30.9272 13.064C29.7811 13.064 28.9157 13.4642 28.3309 14.2647L29.394 14.903C29.7869 14.3607 30.3204 14.0896 30.9947 14.0896C31.4246 14.0848 31.8406 14.2346 32.1598 14.5092C32.478 14.76 32.6611 15.134 32.6584 15.5277V15.7907C32.1945 15.5405 31.6042 15.4154 30.8875 15.4154C30.0478 15.4164 29.3765 15.6041 28.8737 15.9786C28.3709 16.3532 28.1195 16.8575 28.1195 17.4917C28.1085 18.0692 28.3713 18.6206 28.8347 18.9927C29.3115 19.3929 29.9041 19.5931 30.6123 19.5931C31.442 19.5931 32.1068 19.2428 32.6066 18.5424H32.6591V19.3929H33.8137V15.6156C33.8142 14.8236 33.5563 14.2004 33.04 13.7458ZM29.7656 18.2672C29.5128 18.0935 29.3636 17.8139 29.3653 17.5168C29.3653 17.183 29.5295 16.905 29.8601 16.6762C30.1875 16.4509 30.5963 16.3382 31.0867 16.3382C31.7599 16.3382 32.2847 16.4811 32.6611 16.767C32.6611 17.2502 32.4612 17.6712 32.0613 18.0299C31.7012 18.3733 31.2129 18.5666 30.7035 18.5674C30.364 18.5735 30.0326 18.4674 29.7656 18.2672Z" fill="#5F6368"/>
<path fill-rule="evenodd" clip-rule="evenodd" d="M40.4415 13.2639L36.4109 22.0945H35.1648L36.6606 19.0047L34.0103 13.2639H35.3223L37.2379 17.6667H37.2641L39.1272 13.2639H40.4415Z" fill="#5F6368"/>
<path fill-rule="evenodd" clip-rule="evenodd" d="M18.335 14.9836C18.3355 14.6329 18.3044 14.2829 18.2421 13.9373H13.1514V15.9192H16.0671C15.9465 16.5589 15.5571 17.1238 14.989 17.483V18.7696H16.7291C17.748 17.874 18.335 16.5496 18.335 14.9836Z" fill="#4285F4"/>
<path fill-rule="evenodd" clip-rule="evenodd" d="M13.1512 20.0125C14.6079 20.0125 15.8345 19.5565 16.7289 18.7703L14.9888 17.4838C14.5044 17.7968 13.8806 17.9755 13.1512 17.9755C11.7432 17.9755 10.5481 17.0707 10.1207 15.8513H8.32812V17.1771C9.24441 18.9154 11.1106 20.0124 13.1512 20.0125Z" fill="#34A853"/>
<path fill-rule="evenodd" clip-rule="evenodd" d="M10.1208 15.8513C9.89491 15.2124 9.89491 14.5204 10.1208 13.8815V12.5557H8.32822C7.56182 14.0095 7.56182 15.7233 8.32822 17.1771L10.1208 15.8513Z" fill="#FBBC04"/>
<path fill-rule="evenodd" clip-rule="evenodd" d="M13.1512 11.7573C13.921 11.7453 14.6648 12.0226 15.2219 12.5292L16.7626 11.0604C15.7857 10.1857 14.4914 9.70539 13.1512 9.72031C11.1106 9.7204 9.24441 10.8175 8.32812 12.5557L10.1207 13.8815C10.5481 12.6622 11.7432 11.7573 13.1512 11.7573Z" fill="#EA4335"/>
</svg>
