<svg width="32" height="30" viewBox="0 0 32 30" fill="none" xmlns="http://www.w3.org/2000/svg">
<path fill-rule="evenodd" clip-rule="evenodd" d="M18.4032 28.5718L18.403 21.5096V21.5037L18.4029 21.4979L18.4025 21.481L18.4029 21.4642L18.403 21.4582V21.4524L18.4029 7.93781V7.93255L18.4027 7.92711L18.4023 7.91166L18.4027 7.89657L18.4029 7.89113V7.88569L18.4027 0.820856C18.4027 0.545696 18.6233 0.321777 18.8948 0.321777C19.1662 0.321777 19.387 0.545696 19.387 0.820856L19.3872 5.85551V6.70275L19.978 6.10365L21.8928 4.16191C21.9862 4.06715 22.1106 4.01503 22.2428 4.01503C22.3754 4.01503 22.4998 4.06715 22.5933 4.16191C22.6865 4.25667 22.7381 4.38267 22.7381 4.51709C22.7381 4.65134 22.6865 4.77751 22.5933 4.87227L19.4884 8.02046L19.3872 8.1233V8.2686V13.2245V13.8323L19.9063 13.5284L24.1391 11.0504L24.2632 10.9777L24.3002 10.8372L25.4365 6.53674C25.5069 6.26948 25.7784 6.11014 26.0418 6.18156C26.2578 6.24017 26.4087 6.43917 26.4087 6.66572C26.4087 6.70924 26.403 6.75276 26.3917 6.79541L25.6902 9.45049L25.474 10.2688L26.1977 9.84515L30.5004 7.32607C30.6138 7.26009 30.7464 7.24272 30.8734 7.27746C31 7.31221 31.1059 7.39486 31.1714 7.51033C31.2141 7.58597 31.2368 7.6716 31.2368 7.75812C31.2368 7.93658 31.1423 8.10259 30.99 8.19121L26.6901 10.7087L25.9664 11.1325L26.7735 11.3517L29.3896 12.0626C29.6058 12.121 29.7567 12.3202 29.7567 12.5467C29.7567 12.5901 29.751 12.6338 29.7399 12.6762C29.7056 12.8056 29.6239 12.9135 29.5096 12.9807C29.395 13.0479 29.2618 13.0658 29.1346 13.0313L24.8938 11.879L24.7552 11.8415L24.6311 11.9141L20.3978 14.3923L19.8786 14.6963L20.3978 15.0004L24.6309 17.4786L24.7552 17.5512L24.8936 17.5137L29.1347 16.3614C29.2619 16.327 29.395 16.3449 29.5096 16.4121C29.6239 16.4792 29.7056 16.5873 29.7397 16.7163C29.751 16.7589 29.7567 16.8026 29.7567 16.8459C29.7567 17.0725 29.6058 17.2717 29.39 17.3301L26.7735 18.041L25.9664 18.2603L26.6901 18.684L30.9893 21.2011C31.1423 21.2901 31.2368 21.4561 31.2368 21.6347C31.2368 21.7211 31.2141 21.8067 31.1714 21.8823C31.1059 21.9978 31 22.0805 30.8734 22.1154C30.7464 22.15 30.6138 22.1326 30.4998 22.0663L26.1977 19.5475L25.474 19.1241L25.6903 19.9424L26.3917 22.5974C26.403 22.6399 26.4087 22.6834 26.4087 22.727C26.4087 22.9533 26.2578 23.1525 26.0418 23.2111C25.9143 23.2455 25.7812 23.2276 25.6668 23.1606C25.5524 23.0934 25.4706 22.9854 25.4367 22.8561L24.3002 18.5555L24.2632 18.4151L24.1391 18.3425L19.9065 15.8643L19.3873 15.5603V16.1682V21.1244V21.2697L19.4886 21.3726L22.5933 24.5208C22.6865 24.6153 22.7381 24.7413 22.7381 24.8758C22.7381 25.01 22.6865 25.136 22.5933 25.2308C22.4998 25.3255 22.3754 25.3777 22.2428 25.3777C22.1106 25.3777 21.9862 25.3255 21.8929 25.2308L19.9783 23.2892L19.3873 22.6901V23.5375V28.5718C19.3873 28.847 19.1667 29.0709 18.8954 29.0709C18.6238 29.0709 18.4032 28.847 18.4032 28.5718Z" fill="black"/>
<path fill-rule="evenodd" clip-rule="evenodd" d="M15.3213 0.824064V7.77134V7.79748L15.3218 7.80134C15.3139 7.9952 15.1953 8.16749 15.0149 8.2438C14.9566 8.26837 14.8952 8.2817 14.8318 8.28328L14.8172 8.2831C13.1515 8.28433 11.5847 8.91399 10.3865 10.0591H10.3843L10.2942 10.1482C10.2872 10.154 10.2805 10.16 10.2738 10.1665C9.06549 11.3789 8.40233 12.9839 8.40092 14.6914V14.6949V14.6967V14.7086V14.7177L8.4011 14.7179C8.40742 16.4209 9.0697 18.0178 10.2668 19.2199L10.2856 19.2387L10.2951 19.2459L10.3834 19.3341H10.3864C11.5845 20.4792 13.1512 21.1087 14.8144 21.1101H14.8394C14.9001 21.1126 14.9589 21.1257 15.0146 21.1494C15.0302 21.1559 15.0548 21.171 15.0787 21.1855C15.0892 21.1919 15.1001 21.1978 15.1113 21.2036C15.24 21.2957 15.3176 21.4415 15.322 21.5987C15.3217 21.6052 15.3213 21.6119 15.3213 21.6185V28.5686C15.3213 28.8456 15.0957 29.0709 14.8186 29.0709C14.5414 29.0709 14.316 28.8456 14.316 28.5686V22.4178V22.1035L14.0031 22.0692C12.6037 21.9161 11.2815 21.3678 10.1792 20.4841L9.93372 20.2873L9.71109 20.5097L5.35746 24.8598C5.26265 24.9545 5.13658 25.0068 5.00226 25.0068C4.86777 25.0068 4.74171 24.9545 4.64689 24.8598C4.55226 24.7652 4.50011 24.6393 4.50011 24.5049C4.50011 24.3705 4.55226 24.2444 4.64689 24.1496L9.00263 19.7975L9.22509 19.5752L9.02809 19.3299C8.14318 18.2274 7.59449 16.9067 7.44122 15.5106L7.40698 15.1981H7.09217H0.936761C0.659524 15.1981 0.434082 14.9727 0.434082 14.6956C0.434082 14.4186 0.659524 14.1934 0.936761 14.1934H7.09234H7.40715L7.44139 13.8807C7.59502 12.4844 8.14423 11.1638 9.02949 10.0617L9.22649 9.81646L9.00403 9.594L4.6483 5.24184C4.55366 5.14728 4.50134 5.02113 4.50134 4.88692C4.50134 4.75271 4.55366 4.62657 4.6483 4.532C4.74311 4.43727 4.86935 4.38516 5.00367 4.38516C5.13799 4.38516 5.26423 4.43727 5.35886 4.53183L9.71284 8.88241L9.9353 9.10469L10.1808 8.90802C11.2829 8.02486 12.6044 7.47713 14.0031 7.32414L14.316 7.28976V6.97537V0.824064C14.316 0.547043 14.5414 0.321777 14.8186 0.321777C15.0957 0.321777 15.3213 0.547043 15.3213 0.824064Z" fill="black"/>
</svg>
