<svg width="27" height="30" viewBox="0 0 27 30" fill="none" xmlns="http://www.w3.org/2000/svg">
<path fill-rule="evenodd" clip-rule="evenodd" d="M25.1544 19.0821C25.0193 19.283 21.7951 24.0243 17.5508 26.0709C16.7687 26.4488 15.4738 26.6569 14.4015 26.5782L8.70993 25.7714C8.22355 25.7157 6.86373 25.7496 6.38624 26.1655L3.05579 28.7706L0.718617 24.3478L1.07351 24.3403C1.62057 24.0554 5.45272 21.8584 5.65898 21.6117L5.79751 21.4416C6.17294 20.9778 6.74114 20.2768 7.70224 19.7844C7.74791 19.7664 7.7663 19.758 7.78468 19.748C9.30173 19.01 11.2809 19.0504 13.6693 19.8668C13.6892 19.8746 15.3914 20.5626 17.1092 20.3713C17.3454 20.3449 17.598 20.2976 17.8208 20.2559L17.838 20.2525C18.263 20.1717 18.6219 20.1026 18.872 20.1446C19.857 20.2982 20.3192 20.6917 20.34 21.0133C20.3602 21.3455 19.9358 21.8105 18.9422 22.101C16.4564 22.8288 12.0744 22.9134 12.0315 22.9137C11.942 22.9152 11.8574 22.9525 11.7943 23.0191C11.7312 23.0854 11.6974 23.1721 11.6993 23.2639C11.7011 23.3541 11.7391 23.4402 11.8065 23.5056C11.8703 23.5678 11.9555 23.6026 12.0468 23.6038C12.2283 23.6007 16.552 23.5189 19.1307 22.7634C20.3608 22.4033 21.0667 21.7324 21.0182 20.9694C21.0069 20.7894 20.9517 20.6155 20.8543 20.4522L20.7455 20.2702L24.0888 17.2828C24.3796 17.1304 24.8988 16.9186 25.2224 17.1388C25.4281 17.28 25.5537 17.4688 25.5963 17.6999C25.646 17.9571 25.6092 18.4066 25.1544 19.0821ZM8.15766 18.443C8.56956 17.3522 9.61403 16.6197 10.7572 16.6197C11.322 16.6197 11.8672 16.7914 12.3334 17.1167C12.4253 17.1824 12.5485 17.1957 12.6546 17.1519C12.7606 17.1083 12.8366 17.0141 12.8587 16.9003C13.0557 15.8879 13.9372 15.1532 14.954 15.1532C15.9709 15.1532 16.852 15.8876 17.0491 16.8996C17.0715 17.0141 17.1478 17.1087 17.2541 17.1522C17.3595 17.1948 17.4821 17.1814 17.5747 17.1171C18.0405 16.7917 18.5854 16.6197 19.1506 16.6197C20.4467 16.6197 21.4387 17.4085 21.74 18.6784L21.7755 18.8274L20.451 20.0143L20.2928 19.916C19.9388 19.6964 19.4954 19.544 18.9741 19.4628C18.6139 19.405 18.1953 19.4833 17.7524 19.5664L17.7356 19.5698C17.5048 19.6137 17.2664 19.6594 17.0341 19.6855C15.4928 19.8631 13.9037 19.2202 13.8896 19.2134C11.8121 18.5042 9.98272 18.3571 8.45801 18.7795L7.98052 18.912L8.15766 18.443ZM22.3793 17.5292C22.44 17.5208 22.5 17.5142 22.5616 17.5077L23.334 17.4309L22.36 18.3033L22.226 17.9727C22.2215 17.9612 22.2156 17.9497 22.2098 17.9385L22.0474 17.5764L22.3793 17.5292ZM14.3595 6.44136V6.44167L14.254 6.372L14.0006 6.19005C13.5712 5.88182 11.4394 4.39386 9.61525 3.87227C10.668 4.5189 12.6371 5.78509 13.5712 6.75332L13.8461 7.03822H11.8157C8.92048 7.03822 6.45275 4.75466 6.18857 1.83909L6.17202 1.65589H8.7939C11.3931 1.65589 13.6396 3.44741 14.2654 6.01307L14.3717 6.45007L14.3595 6.44136ZM15.3819 9.64805L15.4064 9.54727L15.4959 9.26642C16.0555 7.50538 17.6525 6.32223 19.4699 6.32223H21.4448V6.38008L21.4255 6.51445C21.1249 8.5778 19.3467 10.1336 17.2894 10.1336H15.5768L15.6969 10.0418L15.9954 9.82875C16.7619 9.28228 17.5768 8.76131 18.2005 8.37688C17.5027 8.57749 16.6773 8.94264 15.7411 9.46485L15.3751 9.6692L15.3819 9.64805ZM26.2642 17.5702C26.1875 17.1637 25.9537 16.8079 25.6052 16.5687C24.9028 16.0891 23.9907 16.5342 23.6309 16.7476L23.5681 16.7855L23.4949 16.7824C23.1908 16.7743 22.4121 16.7752 21.7581 16.96L21.6171 17.0001L21.5135 16.8947C20.9012 16.2729 20.062 15.9305 19.1506 15.9305C18.6863 15.9305 18.2358 16.0219 17.8116 16.2029L17.5922 16.2963L17.4886 16.0788C17.1015 15.2674 16.3246 14.6895 15.4107 14.5334L15.3901 14.5296L15.3727 14.511L15.3175 14.4285L15.297 14.4248L15.2872 14.3809V10.997H17.2808C20.0556 10.997 22.3134 8.70626 22.3134 5.89084C22.3134 5.6529 22.1222 5.45913 21.8877 5.45913H19.4788C17.9731 5.45913 16.5535 6.15708 15.5835 7.37413L15.2979 7.73243V7.72372L15.2893 7.73461L15.2813 7.2718C15.2222 3.69903 12.3122 0.79248 8.7939 0.79248H5.74786C5.5134 0.79248 5.32247 0.98625 5.32247 1.22419C5.32247 4.90613 8.2352 7.90163 11.8157 7.90163H14.4361L14.4447 7.95202V14.5296L14.3279 14.5573C13.4808 14.7567 12.7854 15.3112 12.4192 16.0788L12.3159 16.2963L12.0968 16.2029C11.672 16.0219 11.2215 15.9305 10.7572 15.9305C8.98147 15.9305 7.50518 17.2919 7.32436 19.0971L7.31088 19.2296L7.19625 19.2939C6.2045 19.8516 5.59768 20.6012 5.27221 21.0043L5.11989 21.185C4.84866 21.389 1.977 23.0639 0.673566 23.7908C0.236227 24.034 0.0756347 24.5963 0.315297 25.0436L2.34324 28.8409C2.47104 29.0804 2.69538 29.2502 2.95833 29.3068C3.22435 29.3634 3.49037 29.3019 3.70643 29.1333L6.81469 26.7001C7.11841 26.4743 8.12303 26.3969 8.62687 26.456L14.3288 27.2628C15.5271 27.3573 16.9403 27.1287 17.8435 26.6945C22.2463 24.5705 25.5764 19.6787 25.7162 19.4715C26.1857 18.7739 26.3699 18.1341 26.2642 17.5702Z" fill="black"/>
</svg>
