<svg width="49" height="33" viewBox="0 0 49 33" fill="none" xmlns="http://www.w3.org/2000/svg">
<rect x="1.22007" y="0.423198" width="46.5517" height="31.3166" rx="2.96238" fill="white" stroke="#F3F3F3" stroke-width="0.846395"/>
<path d="M21.8412 22.0584H18.6855L20.6593 10.8008H23.8148L21.8412 22.0584Z" fill="#15195A"/>
<path d="M33.2805 11.076C32.6581 10.8482 31.6709 10.5967 30.4502 10.5967C27.3339 10.5967 25.1394 12.1296 25.1259 14.3211C25.1 15.938 26.6971 16.8361 27.8916 17.3752C29.1125 17.9261 29.5275 18.2857 29.5275 18.7768C29.515 19.531 28.5409 19.8786 27.6324 19.8786C26.3725 19.8786 25.6974 19.6994 24.6716 19.2798L24.256 19.0999L23.8145 21.627C24.5546 21.938 25.9182 22.214 27.3339 22.2261C30.645 22.2261 32.8006 20.717 32.8262 18.3815C32.8388 17.1 31.9954 16.118 30.1773 15.3156C29.0736 14.8005 28.3977 14.4532 28.3977 13.9262C28.4106 13.4471 28.9694 12.9563 30.2153 12.9563C31.2412 12.9323 31.9949 13.1597 32.5659 13.3874L32.8514 13.5069L33.2805 11.076Z" fill="#15195A"/>
<path fill-rule="evenodd" clip-rule="evenodd" d="M38.9289 10.8008H41.3698L43.9156 22.0582H40.9938C40.9938 22.0582 40.7079 20.7648 40.6173 20.3695H36.5657C36.4485 20.6688 35.9034 22.0582 35.9034 22.0582H32.5923L37.2796 11.7348C37.6043 11.0042 38.1762 10.8008 38.9289 10.8008ZM38.7342 14.9205C38.7342 14.9205 37.7342 17.4235 37.4744 18.0703H40.0973C39.9675 17.5074 39.37 14.8127 39.37 14.8127L39.1494 13.8427C39.0566 14.0925 38.9223 14.4359 38.8317 14.6675C38.7703 14.8245 38.7289 14.9302 38.7342 14.9205Z" fill="#15195A"/>
<path fill-rule="evenodd" clip-rule="evenodd" d="M12.959 18.4774L16.0494 10.8008H19.3862L14.4261 22.0465H11.0891L8.2765 12.2648C7.306 11.7413 6.19837 11.3204 4.95996 11.0283L5.0119 10.8008H10.089C10.7772 10.8245 11.3356 11.0281 11.5173 11.7471L12.6202 16.9173C12.6206 16.9183 12.6209 16.9194 12.6213 16.9205L12.959 18.4774Z" fill="#15195A"/>
</svg>
