<svg width="61" height="64" viewBox="0 0 61 64" fill="none" xmlns="http://www.w3.org/2000/svg">
<g clip-path="url(#clip0)">
<path d="M47.5135 36.7604L48.4218 35.7231L48.1756 34.9214L47.1152 36.151L45.6582 35.8027L45.9044 36.6044L47.149 36.8719L46.0867 37.1976L46.2971 37.8841L48.8452 37.1037L48.6347 36.4172L47.5135 36.7604Z" fill="#11071B"/>
<path d="M47.9078 34.0516L45.3596 34.8323L45.57 35.519L48.1182 34.7383L47.9078 34.0516Z" fill="#11071B"/>
<path d="M45.6565 33.6991L47.6151 33.0991L47.4047 32.4119L45.446 33.012L45.2199 32.2754L44.6305 32.4558L45.2932 34.6168L45.8826 34.4357L45.6565 33.6991Z" fill="#11071B"/>
<path d="M45.8835 31.9942C46.1382 31.9022 46.3624 31.7413 46.531 31.5293C46.6995 31.3174 46.8059 31.0628 46.8383 30.7939C46.8706 30.525 46.8276 30.2524 46.7141 30.0065C46.6006 29.7607 46.421 29.5511 46.1954 29.4014L45.8112 29.8887C45.9707 30.0009 46.0898 30.1616 46.1509 30.3469C46.1876 30.4417 46.2043 30.5431 46.2001 30.6448C46.1958 30.7464 46.1707 30.846 46.1262 30.9375C46.0818 31.029 46.019 31.1103 45.9417 31.1765C45.8644 31.2426 45.7744 31.2921 45.6771 31.3219C45.5799 31.3517 45.4776 31.3612 45.3765 31.3497C45.2754 31.3382 45.1778 31.306 45.0898 31.2551C45.0017 31.2042 44.9251 31.1358 44.8646 31.054C44.8042 30.9722 44.7612 30.8788 44.7384 30.7797C44.6821 30.5931 44.6893 30.393 44.7591 30.211L44.1713 30.0213C44.0413 30.3214 44.0204 30.6575 44.1123 30.9714C44.1597 31.1559 44.2435 31.329 44.3587 31.4807C44.4738 31.6324 44.6181 31.7596 44.7831 31.8549C44.948 31.9501 45.1303 32.0115 45.3192 32.0354C45.5082 32.0593 45.7 32.0453 45.8835 31.9942Z" fill="#11071B"/>
<path d="M43.3724 28.3543L44.3521 28.0543L44.6108 28.8992L43.6318 29.1993L43.8422 29.8858L46.3909 29.1053L46.1798 28.4188L45.2008 28.7189L44.9415 27.8739L45.9211 27.5738L45.7101 26.8867L43.162 27.6678L43.3724 28.3543Z" fill="#11071B"/>
<path d="M44.79 25.9863L44.4004 26.1053L44.0873 25.0843L43.4978 25.2654L43.811 26.2863L43.4214 26.4054L43.0738 25.2729L42.4844 25.4539L43.0425 27.2729L45.5905 26.4924L45.0137 24.6121L44.4236 24.7925L44.79 25.9863Z" fill="#11071B"/>
<path d="M43.2486 23.1349L42.1663 24.4221L42.3536 25.0335L44.9016 24.2524L44.6899 23.5621L43.3357 23.9774L44.4218 22.689L44.2346 22.0776L41.6865 22.8581L41.8982 23.5484L43.2486 23.1349Z" fill="#11071B"/>
<path d="M42.861 29.6074L37.1323 31.3505L36.5837 29.5481C36.4876 29.2307 36.5212 28.8881 36.6773 28.5955C36.8334 28.3029 37.0992 28.0841 37.4164 27.9872L41.9483 26.6082L40.877 23.0874L36.345 24.4665C35.0947 24.8485 34.047 25.7108 33.4317 26.8643C32.8164 28.0178 32.6838 29.3683 33.063 30.6194L36.1847 40.8785L39.7055 39.8071L38.2036 34.8713L43.9324 33.1281L42.861 29.6074Z" fill="#11071B"/>
<path d="M60.3843 18.1437C60.8247 17.3491 61.0341 16.4471 60.9886 15.5397C60.9432 14.6323 60.6448 13.7558 60.1271 13.0091C59.6095 12.2625 58.8933 11.6755 58.0595 11.3147C57.2257 10.9539 56.3076 10.8335 55.409 10.9672L39.986 13.2629C39.8233 13.2871 39.6571 13.2715 39.5018 13.2172C39.3465 13.1629 39.2067 13.0717 39.0945 12.9514L28.46 1.54787C27.8404 0.883425 27.0473 0.405586 26.1703 0.168387C25.2933 -0.0688114 24.3674 -0.0559063 23.4974 0.205643C22.6273 0.467193 21.8478 0.966953 21.247 1.64841C20.6461 2.32987 20.2479 3.16584 20.0974 4.0618L17.5147 19.4395C17.4875 19.6017 17.4212 19.7549 17.3216 19.8858C17.222 20.0167 17.0921 20.1214 16.943 20.1908L2.81118 26.7811C1.98782 27.1651 1.2883 27.7718 0.79174 28.5326C0.295178 29.2934 0.0213746 30.178 0.00128956 31.0863C-0.0187955 31.9946 0.215639 32.8904 0.678085 33.6724C1.14053 34.4544 1.81254 35.0914 2.61813 35.5114L14.9712 41.9921L14.5259 37.4131L4.40003 32.0933C4.23218 32.0058 4.09217 31.8731 3.99581 31.7102C3.89945 31.5473 3.8506 31.3607 3.85477 31.1715C3.85895 30.9822 3.91599 30.798 4.01945 30.6395C4.1229 30.481 4.26864 30.3546 4.44018 30.2746L18.572 23.6843C19.2876 23.3508 19.9112 22.8482 20.3893 22.22C20.8673 21.5917 21.1854 20.8566 21.316 20.0781L23.8987 4.70038C23.9255 4.51191 24.0069 4.3354 24.1328 4.19261C24.2586 4.04981 24.4236 3.94696 24.6072 3.89675L24.543 3.68391V3.68397L24.6259 3.89149C24.8047 3.83715 24.9953 3.83513 25.1751 3.88567C25.355 3.93621 25.5167 4.03719 25.641 4.17667L36.2756 15.5801C36.814 16.1575 37.4847 16.5953 38.2299 16.8559C38.9751 17.1164 39.7725 17.1918 40.5534 17.0756L55.9765 14.7799C56.1637 14.752 56.355 14.7771 56.5287 14.8522C56.7024 14.9274 56.8516 15.0497 56.9595 15.2052C57.0673 15.3608 57.1295 15.5434 57.139 15.7324C57.1484 15.9215 57.1048 16.1094 57.013 16.275L49.4537 29.9132C49.071 30.6036 48.8618 31.3767 48.8444 32.166C48.827 32.9552 49.0017 33.7368 49.3536 34.4434L56.3029 48.4024C56.3873 48.5718 56.4226 48.7615 56.4048 48.9499C56.3869 49.1383 56.3168 49.318 56.2022 49.4687C56.0875 49.6193 55.9331 49.7348 55.7562 49.8023C55.5793 49.8697 55.3871 49.8863 55.2014 49.8501L39.8946 46.8753C39.1197 46.7247 38.3198 46.7647 37.5639 46.992C36.8079 47.2192 36.1185 47.6269 35.5552 48.1799L24.4269 59.1028C24.2917 59.2355 24.1221 59.3276 23.9373 59.3689C23.7524 59.4101 23.5597 59.3988 23.381 59.3362C23.2023 59.2736 23.0446 59.1622 22.9259 59.0147C22.8072 58.8671 22.7321 58.6893 22.7092 58.5013L22.2209 54.0906L22.2408 54.0867L20.1971 34.8427L24.0494 41.9957C24.3008 42.5269 24.7328 42.9515 25.2683 43.1936C25.8039 43.4357 26.408 43.4796 26.9729 43.3173C27.5378 43.1551 28.0266 42.7973 28.352 42.3079C28.6774 41.8185 28.8182 41.2293 28.7493 40.6456L28.1848 32.1606L31.927 42.1732L35.3674 41.1263L30.9565 29.3546L30.9283 29.2805L30.8938 29.2092C30.5689 28.4715 29.9889 27.8757 29.2603 27.531C28.5316 27.1863 27.7031 27.1158 26.9267 27.3325C26.1503 27.5492 25.478 28.0385 25.0331 28.7107C24.5882 29.3829 24.4006 30.1929 24.5046 30.9923L24.8294 35.8745L22.5707 31.6893C22.2346 30.9565 21.6456 30.3695 20.9117 30.0359C20.1778 29.7023 19.3483 29.6444 18.5752 29.8729C17.8021 30.1014 17.1373 30.601 16.7027 31.28C16.2682 31.959 16.093 32.7719 16.2093 33.5697L16.2204 33.6672L18.409 54.197L18.8836 58.9722C18.9679 59.6509 19.1939 60.3042 19.547 60.89C19.9 61.4757 20.3723 61.9806 20.933 62.3721C21.4938 62.7635 22.1306 63.0327 22.8022 63.1622C23.4737 63.2917 24.1649 63.2785 24.8311 63.1236C24.8956 63.1085 24.9599 63.0919 25.024 63.0741C25.8165 62.8507 26.5398 62.431 27.1269 61.8537L38.2552 50.9307C38.3726 50.8155 38.5162 50.7306 38.6737 50.6832C38.8312 50.6359 38.9978 50.6276 39.1592 50.659L54.4659 53.6338C55.3577 53.8072 56.2803 53.7275 57.1292 53.4039C57.9781 53.0803 58.7195 52.5257 59.2697 51.8027C59.8198 51.0796 60.1567 50.2171 60.2422 49.3127C60.3277 48.4082 60.1584 47.4978 59.7535 46.6845L52.8042 32.7256C52.7309 32.5784 52.6945 32.4156 52.6981 32.2511C52.7017 32.0867 52.7453 31.9256 52.825 31.7817L60.3843 18.1437Z" fill="#11071B"/>
</g>
<defs>
<clipPath id="clip0">
<rect width="61" height="63.2522" fill="white"/>
</clipPath>
</defs>
</svg>
