<svg width="48" height="50" viewBox="0 0 48 50" fill="none" xmlns="http://www.w3.org/2000/svg">
<path d="M34.6954 30.2527L35.4078 29.7028L35.3213 29.1544L34.4876 29.8083L33.5428 29.3943L33.6293 29.9428L34.4394 30.2771L33.6934 30.3485L33.7673 30.8181L35.5565 30.6471L35.4827 30.1776L34.6954 30.2527Z" fill="#CB74AD"/>
<path d="M35.2337 28.5322L33.4643 28.7134L33.5377 29.2068L35.3071 29.0256L35.2337 28.5322Z" fill="#CB74AD"/>
<path d="M33.7834 28.0225L35.1565 27.8913L35.0828 27.4223L33.7097 27.5535L33.6303 27.0507L33.2171 27.0901L33.4495 28.5651L33.8627 28.5253L33.7834 28.0225Z" fill="#CB74AD"/>
<path d="M34.129 26.9348C34.3092 26.9087 34.4757 26.8342 34.6099 26.7196C34.7441 26.605 34.8407 26.4548 34.8889 26.2858C34.9371 26.1168 34.935 25.9356 34.8829 25.7624C34.8308 25.5892 34.7307 25.4308 34.5938 25.305L34.2875 25.5689C34.3837 25.662 34.448 25.781 34.4708 25.9083C34.4861 25.9742 34.4874 26.0417 34.4745 26.1066C34.4617 26.1715 34.435 26.2324 34.3961 26.2856C34.3572 26.3387 34.307 26.383 34.2486 26.4155C34.1901 26.4481 34.1247 26.4682 34.0564 26.4748C33.9881 26.4813 33.9184 26.4741 33.8516 26.4535C33.7848 26.4329 33.7224 26.3995 33.6682 26.3553C33.614 26.311 33.5692 26.2569 33.5366 26.1964C33.504 26.1358 33.4844 26.07 33.4788 26.0032C33.4593 25.8756 33.4839 25.7477 33.5487 25.6395L33.1722 25.4408C33.0553 25.6172 33.0081 25.831 33.039 26.0452C33.0528 26.1702 33.092 26.2927 33.1545 26.4054C33.217 26.5181 33.3015 26.6188 33.403 26.7017C33.5045 26.7845 33.621 26.8478 33.7456 26.8878C33.8703 26.9279 34.0006 26.9438 34.129 26.9348Z" fill="#CB74AD"/>
<path d="M32.8244 24.2476L33.5123 24.1818L33.603 24.7598L32.9156 24.8256L32.9895 25.2951L34.7791 25.1242L34.7048 24.6546L34.0173 24.7204L33.9262 24.1424L34.6141 24.0767L34.5398 23.6066L32.7506 23.778L32.8244 24.2476Z" fill="#CB74AD"/>
<path d="M34.0357 22.8912L33.7624 22.9171L33.6525 22.2194L33.2389 22.2592L33.3488 22.9569L33.0755 22.9828L32.9534 22.2089L32.5398 22.2487L32.7357 23.4917L34.5235 23.3209L34.321 22.036L33.9071 22.0753L34.0357 22.8912Z" fill="#CB74AD"/>
<path d="M33.3073 20.8392L32.4532 21.527L32.5188 21.9451L34.3079 21.7743L34.2337 21.3022L33.2828 21.3931L34.1396 20.705L34.074 20.2868L32.285 20.4572L32.3592 20.9293L33.3073 20.8392Z" fill="#CB74AD"/>
<path d="M32.3874 25.0501L28.3606 25.4538L28.1757 24.2129C28.1434 23.9944 28.201 23.7761 28.3357 23.6058C28.4703 23.4356 28.6712 23.3273 28.8942 23.3047L32.0798 22.9853L31.7187 20.5613L28.5331 20.8807C27.6541 20.9698 26.8623 21.3968 26.3313 22.068C25.8004 22.7392 25.5737 23.5998 25.7009 24.461L26.7531 31.5241L29.2279 31.2759L28.7217 27.8778L32.7485 27.4741L32.3874 25.0501Z" fill="#CB74AD"/>
<path d="M45.3101 19.9053C45.6859 19.4464 45.9179 18.8885 45.9799 18.2946C46.0419 17.7008 45.9314 17.0947 45.6608 16.545C45.3903 15.9953 44.9705 15.5237 44.449 15.1838C43.9275 14.8438 43.325 14.649 42.7098 14.6213L32.1498 14.1466C32.0384 14.1416 31.9287 14.1103 31.8303 14.0553C31.7318 14.0004 31.6475 13.9235 31.5847 13.8313L25.6257 5.08775C25.2785 4.5783 24.7961 4.1677 24.2331 3.90239C23.6701 3.63707 23.0489 3.52762 22.4397 3.58641C21.8306 3.64521 21.2578 3.8699 20.7861 4.23508C20.3144 4.60026 19.9627 5.09136 19.7707 5.65285L16.4756 15.2901C16.4408 15.3918 16.3809 15.4826 16.3009 15.5547C16.2209 15.6269 16.1232 15.6782 16.0163 15.7043L5.8835 18.177C5.29313 18.3211 4.763 18.6253 4.35307 19.0552C3.94313 19.485 3.66974 20.0235 3.5638 20.6095C3.45786 21.1956 3.52361 21.806 3.7536 22.3716C3.98359 22.9373 4.36866 23.4356 4.86526 23.8103L12.4761 29.5822L12.6443 26.558L6.40636 21.8219C6.30289 21.7438 6.22265 21.64 6.17473 21.5222C6.1268 21.4044 6.11309 21.2772 6.13516 21.1551C6.15723 21.033 6.21418 20.9208 6.29959 20.8313C6.38499 20.7417 6.49544 20.6783 6.61844 20.6483L16.7513 18.1756C17.2643 18.0505 17.733 17.8041 18.1171 17.4578C18.5011 17.1115 18.7889 16.6756 18.9557 16.1876L22.2508 6.55041C22.2879 6.43168 22.3603 6.32763 22.4592 6.25111C22.558 6.17458 22.6789 6.12892 22.8069 6.11974L22.7856 5.97363L22.7856 5.97367L22.82 6.11871C22.9452 6.10625 23.073 6.12919 23.1883 6.18483C23.3036 6.24047 23.4016 6.32648 23.4706 6.4327L29.4296 15.1762C29.7313 15.6189 30.1358 15.988 30.6082 16.2516C31.0806 16.5153 31.6068 16.6656 32.1414 16.6897L42.7015 17.1644C42.8297 17.1702 42.9552 17.2108 43.0639 17.2816C43.1725 17.3524 43.26 17.4506 43.3163 17.5652C43.3727 17.6797 43.3957 17.806 43.3828 17.9297C43.3699 18.0534 43.3215 18.1696 43.2432 18.2652L36.7933 26.1419C36.4667 26.5406 36.248 27.0151 36.1559 27.5243C36.0639 28.0336 36.1013 28.5624 36.265 29.0651L39.4964 38.9958C39.5356 39.1163 39.5399 39.2437 39.5088 39.3636C39.4776 39.4834 39.4124 39.591 39.3203 39.674C39.2282 39.757 39.113 39.8123 38.9877 39.8335C38.8625 39.8546 38.7321 39.8409 38.6114 39.7939L28.6659 35.9183C28.1625 35.722 27.6228 35.6462 27.0935 35.6973C26.5643 35.7484 26.0612 35.9249 25.6277 36.2115L17.0647 41.8744C16.9607 41.9431 16.8377 41.9813 16.7098 41.9845C16.5818 41.9877 16.454 41.9558 16.3407 41.8925C16.2274 41.8292 16.1331 41.737 16.0687 41.6263C16.0042 41.5155 15.9721 41.3907 15.9759 41.266L16.098 38.3454L16.1118 38.3454L16.7031 25.6138L18.5539 30.7396C18.6681 31.1159 18.9141 31.4461 19.248 31.6711C19.582 31.8962 19.982 32.0015 20.3767 31.9682C20.7715 31.9349 21.1352 31.7652 21.4029 31.4895C21.6706 31.2137 21.8249 30.8498 21.8382 30.4628L22.3242 24.892L23.8102 31.8571L26.2202 31.6164L24.4657 23.4262L24.4543 23.3746L24.4385 23.324C24.2961 22.8046 23.9684 22.3446 23.5157 22.0285C23.0629 21.7124 22.5154 21.5613 21.9735 21.603C21.4316 21.6446 20.9316 21.8761 20.5653 22.2552C20.199 22.6342 19.9909 23.1353 19.9792 23.6666L19.6995 26.872L18.6134 23.8722C18.4629 23.3546 18.1284 22.8992 17.671 22.5896C17.2136 22.28 16.6641 22.1369 16.1232 22.1867C15.5823 22.2364 15.0863 22.4755 14.7262 22.8603C14.3661 23.245 14.1661 23.7496 14.1627 24.2814L14.1602 24.346L13.535 37.9293L13.3666 41.0843C13.3539 41.5349 13.4387 41.9871 13.6154 42.4116C13.7922 42.8361 14.0569 43.2235 14.3925 43.5485C14.7281 43.8735 15.1271 44.129 15.5635 44.2984C15.9999 44.4677 16.4641 44.5472 16.9259 44.5316C16.9706 44.53 17.0153 44.5274 17.0601 44.524C17.6134 44.4801 18.1404 44.3001 18.5923 44.0007L27.1553 38.3378C27.2456 38.2781 27.3504 38.2414 27.4607 38.2307C27.571 38.2201 27.6834 38.2359 27.7883 38.2768L37.7337 42.1524C38.3131 42.3782 38.9389 42.444 39.5402 42.3423C40.1416 42.2406 40.6945 41.9755 41.1364 41.5769C41.5784 41.1784 41.8918 40.6623 42.0411 40.087C42.1905 39.5117 42.1698 38.9002 41.9816 38.3216L38.7502 28.3909C38.7161 28.2862 38.7083 28.176 38.7274 28.0699C38.7466 27.9638 38.7922 27.8649 38.8602 27.7819L45.3101 19.9053Z" fill="#CB74AD"/>
</svg>
