<svg width="48" height="33" viewBox="0 0 48 33" fill="none" xmlns="http://www.w3.org/2000/svg">
<rect x="0.61851" y="0.423198" width="46.5517" height="31.3166" rx="2.96238" fill="white" stroke="#F3F3F3" stroke-width="0.846395"/>
<path d="M28.2339 23.2993H19.7749V8.45264H28.2339V23.2993Z" fill="#FF5F00"/>
<path d="M20.3176 15.8747C20.3176 12.863 21.7615 10.1803 24.01 8.45141C22.3657 7.18717 20.2906 6.43259 18.0353 6.43259C12.6961 6.43259 8.36816 10.6599 8.36816 15.8747C8.36816 21.0896 12.6961 25.3169 18.0353 25.3169C20.2906 25.3169 22.3657 24.5623 24.01 23.2981C21.7615 21.5692 20.3176 18.8865 20.3176 15.8747Z" fill="#EB001B"/>
<path d="M39.6425 15.8747C39.6425 21.0896 35.3145 25.3169 29.9753 25.3169C27.7201 25.3169 25.6449 24.5623 24 23.2981C26.2491 21.5692 27.693 18.8865 27.693 15.8747C27.693 12.863 26.2491 10.1803 24 8.45141C25.6449 7.18717 27.7201 6.43259 29.9753 6.43259C35.3145 6.43259 39.6425 10.6599 39.6425 15.8747Z" fill="#F79E1B"/>
</svg>
