<svg width="45" height="30" viewBox="0 0 45 30" fill="none" xmlns="http://www.w3.org/2000/svg">
<mask id="mask0" mask-type="alpha" maskUnits="userSpaceOnUse" x="0" y="0" width="45" height="30">
<path d="M0 0H44.3875V29.3275H0V0Z" fill="white"/>
</mask>
<g mask="url(#mask0)">
<path fill-rule="evenodd" clip-rule="evenodd" d="M27.5854 24.8098C27.9062 24.6804 28.2218 24.5287 28.5319 24.3649C29.0995 24.0649 29.6469 23.7259 30.163 23.4111C31.3889 22.6639 33.8285 21.003 34.1166 19.19C34.9491 19.6731 35.7027 20.1182 36.3359 20.4922L36.392 20.5266C36.4929 20.586 36.5803 20.637 36.6716 20.6905C36.5195 22.1502 36.0252 23.3935 35.0552 24.5054C34.7023 24.9094 34.2091 25.5023 33.6592 26.0396C33.5373 26.1582 33.4127 26.2738 33.2859 26.3843C31.9139 26.0315 30.3959 25.6355 28.8408 25.2191C28.3891 25.0984 27.9353 24.9768 27.4798 24.8524C27.515 24.8392 27.55 24.8245 27.5854 24.8098ZM12.2494 9.36187C12.0073 9.69463 11.7641 10.045 11.5571 10.4156C11.4031 10.4083 11.248 10.4016 11.0945 10.3942C10.657 10.3745 10.2255 10.3556 9.79676 10.3342C10.3637 9.43622 11.2379 8.62232 11.8256 7.92794C13.5297 5.91555 15.2897 3.67213 17.2448 1.81511C17.8377 1.73832 18.4202 1.66544 19.0095 1.60365C16.539 3.9312 14.2341 6.63178 12.2494 9.36187ZM20.9892 11.4418C19.9536 11.2089 18.9246 11.0384 17.9017 10.9037C17.4002 8.68999 20.4915 7.37687 21.8897 6.31516C23.5734 5.03726 24.9991 3.50779 26.2916 1.82098C26.7256 1.89142 27.1692 1.96886 27.6302 2.05967C27.7761 2.08821 27.9173 2.12342 28.0608 2.15554C25.5437 5.06758 23.3595 8.41885 20.9892 11.4418ZM28.5448 8.83672C27.7263 10.2304 26.6859 11.9067 25.4275 13.0175C24.1031 12.4312 22.8429 11.9467 21.7311 11.632C21.7645 11.5859 21.7928 11.5384 21.8294 11.4921C22.8074 10.2552 23.7766 9.01019 24.7334 7.75414C26.0832 5.98142 27.3775 4.07255 28.8106 2.33847C29.5361 2.53314 30.236 2.76531 30.9086 3.034C30.5347 5.11519 29.5966 7.04867 28.5448 8.83672ZM28.3978 14.4356C27.5926 14.0276 26.7866 13.6353 25.9972 13.2745C28.5534 10.9001 30.9587 7.11812 31.6866 3.36431C32.4144 3.68974 33.1105 4.05234 33.7824 4.43776C33.1152 8.26951 31.032 11.6335 28.3978 14.4356ZM36.2556 6.01647C36.1974 9.32779 34.7678 12.4691 32.7042 14.9016C32.3317 15.3415 31.8967 15.6943 31.4802 16.0683C30.6811 15.6284 29.8569 15.1871 29.0265 14.7575C30.1894 13.1356 31.5854 11.7103 32.6188 9.93903C33.5681 8.31402 34.2165 6.65265 34.5597 4.9003C35.1431 5.25964 35.7066 5.63528 36.2556 6.01647ZM38.681 7.78561C38.8439 9.74517 38.4613 11.6447 37.6664 13.4864C37.0234 14.9763 35.8015 16.9357 34.2624 17.6392C33.5833 17.2466 32.8593 16.8346 32.1057 16.4146C32.1271 16.3977 32.1466 16.3779 32.1685 16.3618C34.9474 14.2392 36.8241 10.3212 37.0625 6.58743C37.6166 6.98851 38.1544 7.3904 38.681 7.78561ZM9.23026 18.8907C9.14321 18.6279 9.07079 18.36 9.01421 18.0841C8.59631 16.0471 8.94753 13.691 9.24685 11.7501C9.83976 11.7809 10.4407 11.8076 11.0509 11.8347C11.0959 11.837 11.1413 11.8391 11.1863 11.8414C11.2226 12.3075 11.3255 12.8382 11.3394 13.153C11.4234 15.1072 11.5157 17.5044 12.8622 18.9857C13.7065 19.9147 15.3071 19.9169 16.4011 19.6534C17.9699 19.2742 18.8422 18.2979 19.4971 17.0528C19.2706 18.4508 19.1077 19.8611 18.998 21.2761C18.9787 21.5199 18.9621 21.7651 18.9461 22.0095C18.939 22.1185 18.9298 22.2268 18.923 22.3359C16.3415 21.4701 12.8559 20.2177 9.64876 19.0444C9.50831 18.9924 9.36906 18.9412 9.23026 18.8907ZM8.13164 17.7957C8.17539 18.0504 8.2285 18.3015 8.29518 18.5467C7.00194 18.0709 5.78791 17.6208 4.73742 17.23C4.74723 17.0544 4.76005 16.878 4.77574 16.6978C4.92223 14.966 5.31011 13.0493 5.94466 11.5083C6.7598 11.5926 7.58369 11.6547 8.42191 11.7041C8.09573 13.6185 7.79475 15.829 8.13164 17.7957ZM20.7565 14.8302C21.1918 16.7893 22.1681 18.6155 24.1557 18.8628C26.0672 19.1015 27.2817 17.6191 28.2123 16.0003C28.2225 15.9826 28.2343 15.9666 28.2448 15.9482C29.0004 16.3368 29.7535 16.7387 30.4898 17.1406C29.8899 17.9128 29.281 18.6704 28.6181 19.3818C27.5729 20.5046 26.3646 21.4709 24.9443 21.9421C23.0695 22.5645 21.9167 21.2782 21.3265 19.5632C20.8632 18.218 20.6488 16.4702 20.7565 14.8302ZM16.3606 17.35C17.3588 17.35 18.3464 16.8428 19.1747 16.0786C18.9502 16.5879 18.7148 17.0827 18.4801 17.5388C17.7721 18.9142 16.2596 19.499 14.8748 19.4212C13.6191 19.3511 13.0146 18.1425 12.6663 17.0074C12.1776 15.4111 12.2036 13.6508 12.1216 11.9914C12.12 11.954 12.1213 11.919 12.1207 11.8823C12.8938 11.919 13.6735 11.9599 14.4569 12.0134C14.4049 12.3836 14.3184 12.7585 14.1888 13.186C13.6926 14.8141 14.5853 17.35 16.3606 17.35ZM17.3999 14.6505C18.1394 14.7467 19.0468 14.4303 19.8103 13.9069C18.5533 16.1569 15.8559 18.3877 15.0712 15.1737C14.8149 14.1236 14.9934 13.175 15.3582 12.1852C15.3707 12.1516 15.3789 12.1187 15.389 12.0851C15.7584 12.1151 16.1288 12.1503 16.5004 12.1883C16.1824 12.5767 16.052 12.9059 16.0649 13.5036C16.0825 14.2989 16.8157 14.5759 17.3999 14.6505ZM19.0457 13.7129C18.4789 14.1213 17.3436 14.7925 16.8984 13.5027C16.7395 13.0425 16.9654 12.6209 17.2851 12.2754C18.2272 12.3892 19.1733 12.5388 20.1209 12.7314C19.8276 13.1216 19.4399 13.4281 19.0457 13.7129ZM22.3171 14.0913C22.1525 13.7905 22.0157 13.4771 21.8728 13.1692C22.7214 13.4365 23.6524 13.7967 24.6279 14.2201C24.3422 15.19 22.8479 15.0604 22.3171 14.0913ZM25.3444 14.5385C26.0636 14.8649 26.8009 15.22 27.5415 15.5919C27.0608 16.3801 26.6491 17.23 26.003 17.9027C23.6408 20.3634 22.1468 16.9078 21.5635 14.2045C21.9493 14.9052 22.4301 15.4638 23.3696 15.5339C23.9534 15.5772 24.4831 15.3268 24.96 14.9931C25.1454 14.862 25.2602 14.7053 25.3444 14.5385ZM3.99772 11.2565C4.37534 11.3172 4.75432 11.3686 5.13466 11.4162C4.79219 12.2703 4.63166 13.3133 4.42075 14.1513C4.23111 14.9045 4.08341 15.6687 3.98761 16.4401C3.96724 16.6026 3.94356 16.7652 3.92832 16.9284C2.76407 16.4935 1.87335 16.159 1.41939 15.9878C1.65158 14.7273 2.35356 12.2651 3.62281 11.4476C3.74351 11.3699 3.86707 11.3019 3.99772 11.2565ZM26.7873 24.6642C24.1773 23.9491 21.6021 23.2076 19.5777 22.5511C19.5838 22.4399 19.5912 22.3293 19.598 22.2182C19.613 21.9736 19.6309 21.7285 19.6492 21.4833C19.7423 20.2199 19.8774 18.9587 20.0616 17.7065C20.2083 18.6492 20.4477 19.5539 20.7668 20.3509C21.7939 22.9156 24.4366 22.8995 26.4974 21.8922C27.8912 21.2117 29.0609 19.9775 30.0898 18.7875C30.4436 18.3776 30.764 17.9172 31.1036 17.4788C31.8696 17.9033 32.6111 18.3227 33.309 18.7237C33.4158 20.714 30.3756 23.048 27.9749 24.1833C27.6169 24.3532 27.2742 24.4943 26.9566 24.6057C26.9003 24.6254 26.8424 24.646 26.7873 24.6642ZM34.2762 26.2423C34.673 25.8728 35.0455 25.4752 35.3958 25.1085C36.1927 24.2741 36.8129 23.4214 37.2171 22.2905C37.3464 21.9262 37.4155 21.5433 37.4656 21.1576C37.9471 21.4385 38.1863 21.5711 38.3251 21.6333C38.6277 22.076 38.8137 24.2793 38.598 27.6565C38.5963 27.6785 38.5954 27.6982 38.5939 27.7202C37.7934 27.5239 36.0785 27.0987 33.9313 26.5498C34.0486 26.4495 34.1638 26.347 34.2762 26.2423ZM41.337 9.73246C41.1454 13.3382 40.3482 17.7181 37.5066 19.542C37.3484 19.4484 37.1884 19.3547 37.0321 19.2618L36.9715 19.2259C36.343 18.8548 35.5986 18.4149 34.7756 17.9371C37.9248 16.6641 39.5334 12.0711 39.5097 8.40809C40.1288 8.87112 40.7359 9.31687 41.337 9.73246ZM25.5119 1.70457C24.0476 3.62387 22.4091 5.35111 20.4254 6.68477C19.0931 7.57985 16.7358 8.79645 17.0324 10.7955C16.4871 10.7347 15.9443 10.6848 15.4039 10.6409C15.3427 10.1498 15.3161 9.66088 15.6524 9.12285C16.4828 7.79604 18.129 6.67515 19.2228 5.62567C20.6787 4.22972 22.1454 2.84568 23.6472 1.50779C24.2506 1.55099 24.8692 1.61604 25.5119 1.70457ZM21.8748 1.4411C22.1798 1.4411 22.4877 1.44925 22.7981 1.46099C20.8825 3.17144 19.021 4.9546 17.1689 6.74265C16.3886 7.49654 15.5851 8.23136 14.8492 9.03579C14.5001 9.41796 14.45 9.94245 14.4892 10.4462C14.4925 10.4894 14.4939 10.5304 14.4966 10.5729C13.8011 10.5261 13.1088 10.488 12.4214 10.4554C12.7556 9.71811 13.3161 9.0834 13.8565 8.39097C15.7234 5.99739 17.7933 3.59224 20.0183 1.51284C20.612 1.46752 21.2245 1.4411 21.8748 1.4411ZM16.2414 1.9418C14.37 3.7636 12.6777 5.91033 11.0221 7.85376C10.552 8.40483 9.4202 9.401 8.85807 10.2856C8.11882 10.2451 7.38937 10.1974 6.672 10.1329C7.37413 9.1116 8.35553 8.20837 9.14969 7.36122C10.7349 5.66822 12.4726 3.69202 14.37 2.14315C15.0263 2.08527 15.6436 2.01565 16.2414 1.9418ZM13.4322 2.21407C11.4928 3.81854 9.72163 5.85767 8.09347 7.59599C7.36131 8.37858 6.59596 9.18155 5.94361 10.0605C5.6037 10.0246 5.2647 9.98468 4.92872 9.93903C8.50323 6.00326 11.2249 3.30138 12.6703 2.25548C12.9318 2.24407 13.1839 2.2294 13.4322 2.21407ZM42.8149 16.1174C42.8094 16.1392 42.8048 16.1598 42.8007 16.181C42.339 18.7552 41.0588 22.2847 40.0318 24.8698C40.0269 21.2021 39.3597 20.659 39.0937 20.4446L39.0447 20.4079C38.9902 20.3655 38.9291 20.3334 38.8656 20.3114L38.833 20.3005C38.7402 20.2609 38.4126 20.0727 38.0081 19.8363C38.2255 19.6842 38.4788 19.5649 38.6986 19.395C41.1326 17.5132 41.9127 13.6332 42.139 10.2677C42.4092 10.4415 42.6794 10.6094 42.949 10.7665C43.1813 13.2782 42.9795 15.5018 42.8149 16.1174ZM44.2359 10.2219C44.2101 9.98305 44.0754 9.77354 43.8768 9.66447C43.3284 9.36154 42.7751 9.00954 42.2128 8.62591C41.9398 8.44005 41.6656 8.24668 41.3884 8.04696C40.8222 7.63936 40.2473 7.2078 39.658 6.76449C39.55 6.6833 39.4406 6.60097 39.3311 6.51928C39.1657 6.39537 38.9996 6.27081 38.8317 6.14609C38.256 5.71648 37.6652 5.28312 37.0539 4.85645C36.901 4.74949 36.7467 4.64352 36.5919 4.53722C36.0067 4.13907 35.4019 3.75039 34.7764 3.37866C34.5105 3.22133 34.2412 3.06693 33.9671 2.91612C33.2988 2.54863 32.6046 2.20527 31.8814 1.89419C31.6151 1.78071 31.3449 1.67099 31.0706 1.56697C30.675 1.41632 30.2713 1.27562 29.8575 1.14731C29.6271 1.07671 29.3934 1.01035 29.1579 0.946768C28.7365 0.832967 28.3099 0.728296 27.8689 0.641885C27.655 0.600147 27.4469 0.561996 27.239 0.524334C26.978 0.477215 26.7215 0.43401 26.469 0.392924C24.8183 0.127171 23.3303 0 21.8745 0C20.8677 0 19.9566 0.0614657 19.0707 0.149996C18.7723 0.179669 18.4757 0.211951 18.1808 0.24733C17.789 0.29347 17.3979 0.343849 17.001 0.395207C16.8557 0.413793 16.7094 0.43238 16.5627 0.450803C16.3307 0.480802 16.0968 0.509334 15.8594 0.537866C14.8157 0.663406 13.71 0.774762 12.4372 0.822695C12.3184 0.826934 12.2033 0.865575 12.1031 0.934703C10.0833 2.31956 6.18168 6.4751 3.26435 9.71811C3.07727 9.92615 2.90363 10.1337 2.73993 10.3409C0.736263 11.837 0.12359 15.5772 0.052833 16.0551L0.00847789 16.3523C-0.0426662 16.697 0.141845 17.0322 0.44705 17.1472L0.751802 17.2629C2.71429 18.0036 12.7963 21.7936 18.5854 23.731C18.6715 23.7603 18.763 23.7895 18.8512 23.8181C19.0125 23.8724 19.1757 23.925 19.3438 23.9798C22.6531 25.0456 27.3359 26.3192 31.2821 27.3475C31.5713 27.4229 31.8556 27.4962 32.1359 27.5694C35.437 28.4234 38.0731 29.0713 38.6799 29.2192L39.0536 29.31C39.1016 29.3216 39.1506 29.3275 39.1993 29.3275H39.1998C39.2666 29.3275 39.3326 29.3143 39.3952 29.2931C39.4148 29.2872 39.4317 29.2756 39.4507 29.2667C39.4931 29.2484 39.535 29.228 39.5733 29.1987C39.5801 29.1936 39.5883 29.192 39.5948 29.1869C39.6231 29.1643 39.6471 29.1372 39.6716 29.1101C39.6797 29.102 39.6889 29.0955 39.6958 29.0865C39.7325 29.042 39.764 28.9908 39.79 28.9359C39.7927 28.93 39.7968 28.9271 39.7989 28.9212C39.9398 28.608 43.2486 21.208 44.1037 16.4862C44.3807 15.4082 44.5096 12.7306 44.2359 10.2219Z" fill="black"/>
</g>
</svg>
